<svg version="1.1" id="Layer_1" xmlns="http://www.w3.org/2000/svg" xmlns:xlink="http://www.w3.org/1999/xlink" x="0px" y="0px"
	 width="100%" viewBox="0 0 225 176" enable-background="new 0 0 225 176" xml:space="preserve">
<path fill="#445A64" opacity="1.000000" stroke="none" 
	d="
M226.000000,29.000000 
	C226.000000,77.687561 226.000000,126.375122 225.832520,175.697266 
	C225.434616,176.545853 225.212936,176.768570 225.000000,177.000000 
	C151.312439,177.000000 77.624878,177.000000 3.592077,176.684753 
	C4.458655,175.032028 5.505083,173.483017 6.906128,172.387573 
	C61.367504,129.805542 115.882736,87.292366 170.320801,44.680595 
	C176.442444,39.888844 182.151779,34.570362 188.443497,29.439270 
	C189.870422,29.191631 190.906174,29.000858 192.408478,28.893675 
	C203.916702,28.984842 214.958359,28.992420 226.000000,29.000000 
z"/>
<path fill="#546E7A" opacity="1.000000" stroke="none" 
	d="
M188.052307,29.496140 
	C182.151779,34.570362 176.442444,39.888844 170.320801,44.680595 
	C115.882736,87.292366 61.367504,129.805542 6.906128,172.387573 
	C5.505083,173.483017 4.458655,175.032028 3.123420,176.684753 
	C2.333334,176.669586 1.216012,176.458206 1.090971,175.984741 
	C0.803786,174.897339 1.000000,173.682266 1.000000,172.519012 
	C1.000000,124.991783 1.000000,77.464546 1.467620,29.503525 
	C60.987465,29.091248 120.039696,29.107540 179.091904,29.149529 
	C182.078796,29.151651 185.065506,29.375521 188.052307,29.496140 
M15.033251,48.466133 
	C14.447573,52.072247 16.038761,53.905312 19.536236,54.874668 
	C24.189932,56.164482 28.710278,57.935436 34.104435,59.778709 
	C32.521282,60.778130 32.138393,61.124462 31.689037,61.286789 
	C28.403059,62.473824 25.111366,63.646122 21.807087,64.781181 
	C14.373279,67.334785 13.305902,69.675552 16.211508,78.013313 
	C26.060400,73.995003 35.991890,70.202545 45.615879,65.746033 
	C47.117531,65.050674 47.787872,61.326382 47.774662,59.008797 
	C47.765186,57.347202 46.361458,54.825813 44.914944,54.182201 
	C36.100899,50.260498 27.103563,46.748955 18.143471,43.160255 
	C17.329508,42.834248 16.346676,42.929867 15.032728,42.784325 
	C15.032728,44.663303 15.032728,46.146042 15.033251,48.466133 
M64.508537,83.049812 
	C61.011509,83.056770 57.507324,83.206299 54.019428,83.031281 
	C50.408867,82.850082 50.030483,84.915710 50.019608,87.764053 
	C50.008797,90.596489 50.374058,92.696312 53.932976,92.670197 
	C63.091240,92.602982 72.251259,92.578247 81.408669,92.691330 
	C84.985504,92.735497 85.477768,90.690109 85.414955,87.860924 
	C85.355446,85.180222 85.226967,82.889542 81.490570,83.018158 
	C76.168228,83.201355 70.834557,83.055260 64.508537,83.049812 
z"/>
<path fill="#8FA3AD" opacity="1.000000" stroke="none" 
	d="
M188.443497,29.439274 
	C185.065506,29.375521 182.078796,29.151651 179.091904,29.149529 
	C120.039696,29.107540 60.987465,29.091248 1.467620,29.034866 
	C1.000000,23.977907 1.000000,18.955816 1.000500,13.079170 
	C3.089603,6.964817 5.861187,2.449755 12.563263,1.763061 
	C13.241244,1.420758 13.620623,1.210379 14.000000,1.000000 
	C80.020897,1.000000 146.041794,1.000000 212.808823,1.166541 
	C213.943970,1.522711 214.332977,1.712341 215.052887,1.878709 
	C217.339188,2.854464 219.294601,3.853479 220.961761,5.052844 
	C218.854355,6.687726 217.007904,8.089188 215.220673,9.562498 
	C207.451675,15.966949 199.699936,22.392321 191.941910,28.810085 
	C190.906174,29.000858 189.870422,29.191631 188.443497,29.439274 
z"/>
<path fill="#788F9B" opacity="1.000000" stroke="none" 
	d="
M192.408478,28.893677 
	C199.699936,22.392321 207.451675,15.966949 215.220673,9.562498 
	C217.007904,8.089188 218.854355,6.687726 221.254364,5.215199 
	C223.223480,7.451469 224.611740,9.725733 226.000000,11.999998 
	C226.000000,17.354929 226.000000,22.709860 226.000000,28.532394 
	C214.958359,28.992420 203.916702,28.984842 192.408478,28.893677 
z"/>
<path fill="#FAFBFC" opacity="1.000000" stroke="none" 
	d="
M12.264659,1.894986 
	C5.861187,2.449755 3.089603,6.964817 1.000500,12.612309 
	C1.000000,9.078017 1.000000,5.156034 1.000000,1.000000 
	C4.678595,1.000000 8.360122,1.000000 12.289955,1.185102 
	C12.447060,1.545131 12.355859,1.720058 12.264659,1.894986 
z"/>
<path fill="#F9FAFA" opacity="1.000000" stroke="none" 
	d="
M226.000000,11.517042 
	C224.611740,9.725733 223.223480,7.451469 221.542603,5.014851 
	C219.294601,3.853479 217.339188,2.854464 214.916656,1.617228 
	C214.299683,1.252672 214.149841,1.126336 214.000000,1.000000 
	C217.917175,1.000000 221.834335,1.000000 226.000000,1.000000 
	C226.000000,4.342351 226.000000,7.688220 226.000000,11.517042 
z"/>
<path fill="#98AAB3" opacity="1.000000" stroke="none" 
	d="
M12.563263,1.763061 
	C12.355859,1.720058 12.447060,1.545131 12.769131,1.185102 
	C13.000000,1.000000 13.500000,1.000000 13.750000,1.000000 
	C13.620623,1.210379 13.241244,1.420758 12.563263,1.763061 
z"/>
<path fill="#98AAB3" opacity="1.000000" stroke="none" 
	d="
M213.750000,1.000000 
	C214.149841,1.126336 214.299683,1.252672 214.585754,1.640489 
	C214.332977,1.712341 213.943970,1.522711 213.277481,1.166541 
	C213.000000,1.000000 213.500000,1.000000 213.750000,1.000000 
z"/>
<path fill="#4E626B" opacity="1.000000" stroke="none" 
	d="
M225.500000,177.000000 
	C225.212936,176.768570 225.434616,176.545853 225.832520,176.165924 
	C226.000000,176.333328 226.000000,176.666672 225.500000,177.000000 
z"/>
<path fill="#97DA4E" opacity="1.000000" stroke="none" 
	d="
M15.032990,48.047455 
	C15.032728,46.146042 15.032728,44.663303 15.032728,42.784325 
	C16.346676,42.929867 17.329508,42.834248 18.143471,43.160255 
	C27.103563,46.748955 36.100899,50.260498 44.914944,54.182201 
	C46.361458,54.825813 47.765186,57.347202 47.774662,59.008797 
	C47.787872,61.326382 47.117531,65.050674 45.615879,65.746033 
	C35.991890,70.202545 26.060400,73.995003 16.211508,78.013313 
	C13.305902,69.675552 14.373279,67.334785 21.807087,64.781181 
	C25.111366,63.646122 28.403059,62.473824 31.689037,61.286789 
	C32.138393,61.124462 32.521282,60.778130 34.104435,59.778709 
	C28.710278,57.935436 24.189932,56.164482 19.536236,54.874668 
	C16.038761,53.905312 14.447573,52.072247 15.032990,48.047455 
z"/>
<path fill="#94D650" opacity="1.000000" stroke="none" 
	d="
M65.007126,83.049820 
	C70.834557,83.055260 76.168228,83.201355 81.490570,83.018158 
	C85.226967,82.889542 85.355446,85.180222 85.414955,87.860924 
	C85.477768,90.690109 84.985504,92.735497 81.408669,92.691330 
	C72.251259,92.578247 63.091240,92.602982 53.932976,92.670197 
	C50.374058,92.696312 50.008797,90.596489 50.019608,87.764053 
	C50.030483,84.915710 50.408867,82.850082 54.019428,83.031281 
	C57.507324,83.206299 61.011509,83.056770 65.007126,83.049820 
z"/>
</svg>